<svg width="90" height="90" viewBox="0 0 90 90" fill="none" xmlns="http://www.w3.org/2000/svg">
<g clip-path="url(#clip0_16_4128)">
<path d="M45 90.225C69.8528 90.225 90 69.9771 90 45C90 20.023 69.8528 -0.224976 45 -0.224976C20.1472 -0.224976 -7.62939e-06 20.023 -7.62939e-06 45C-7.62939e-06 69.9771 20.1472 90.225 45 90.225Z" fill="white"/>
<path d="M45 90.225C20.1572 90.225 -7.62939e-06 69.9671 -7.62939e-06 45C-7.62939e-06 20.033 20.1572 -0.224976 45 -0.224976C69.8428 -0.224976 90 20.033 90 45C90 69.9671 69.8428 90.225 45 90.225ZM45 0.930083C20.776 0.930083 1.0609 20.7438 1.0609 45.0889C1.0609 69.434 20.776 89.2477 45 89.2477C69.224 89.2477 88.9391 69.3451 88.9391 45C88.9391 20.6549 69.224 0.930083 45 0.930083Z" fill="black"/>
<path d="M28.7328 26.7856V40.7352H37.1316V49.3537H41.7289L43.7623 43.7561L45.0884 40.0244L46.3261 43.7561L48.3595 49.5314L52.7799 49.6203V40.7352H61.1788V26.7856H28.7328Z" fill="black"/>
<path d="M49.7741 63.7475L45 60.1046L39.9607 63.7475L37.1316 65.7911V67.7458H52.78V66.0576L49.7741 63.7475Z" fill="black"/>
<path d="M44.9116 44.4669L42.6129 50.8642H35.3634L41.11 54.9513L39.165 62.2371L44.9116 58.0611L50.3045 62.2371L48.5363 54.9513L54.5481 51.1307L47.2102 50.953L44.9116 44.4669Z" fill="#ED1C24"/>
<path d="M65.5108 75.5647L63.831 74.0543L64.4499 76.2755L65.5108 75.5647Z" fill="black"/>
<path d="M51.6306 78.6745C51.4538 78.5856 51.3654 78.4968 51.277 78.5856L50.0393 78.6745L50.3045 80.1849L51.5422 80.0072C51.6306 80.0072 51.719 79.9184 51.8074 79.7407C51.8959 79.563 51.8958 79.3853 51.8958 79.1187C51.8074 78.941 51.719 78.7633 51.6306 78.6745Z" fill="black"/>
<path d="M35.8055 77.786L34.833 77.5194L34.3909 79.0299L35.3634 79.2964C35.4518 79.2964 35.6287 79.2964 35.7171 79.2076C35.8055 79.1187 35.9823 78.941 36.0707 78.6745C36.1591 78.4079 36.1591 78.1414 36.0707 78.0525C36.0707 77.9637 35.9823 77.8748 35.8055 77.786Z" fill="black"/>
<path d="M44.1159 79.6518C44.0275 79.4741 43.8507 79.2964 43.5855 79.2075C43.4086 79.1187 43.1434 79.0298 42.8782 79.0298C42.613 79.0298 42.3477 79.0298 42.1709 79.1187C41.9941 79.2075 41.8173 79.3852 41.6405 79.5629C41.4637 79.7407 41.3752 79.9183 41.2868 80.1849C41.1984 80.4515 41.1984 80.6292 41.11 80.8957C41.11 81.1623 41.11 81.34 41.1984 81.6065C41.2868 81.8731 41.3752 82.0508 41.4637 82.2285C41.5521 82.4062 41.7289 82.5839 41.9057 82.6727C42.0825 82.7616 42.3477 82.8504 42.613 82.8504C42.8782 82.8504 43.1434 82.8504 43.3202 82.7616C43.4971 82.6727 43.6739 82.495 43.8507 82.3173C44.0275 82.1396 44.1159 81.9619 44.2043 81.6954C44.2927 81.4288 44.2927 81.2511 44.3811 80.9846C44.3811 80.718 44.3811 80.5403 44.2927 80.2738C44.3811 80.0072 44.2927 79.8295 44.1159 79.6518Z" fill="black"/>
<path d="M12.8192 59.7493C12.9961 59.7493 13.1729 59.7493 13.4381 59.6604C13.7033 59.5716 13.7917 59.3939 13.8801 59.305C13.9686 59.1273 13.9686 59.0385 13.8801 58.8608L13.4381 57.7946L12.0236 58.3277L12.554 59.4827C12.554 59.6604 12.6424 59.6604 12.8192 59.7493Z" fill="black"/>
<path d="M15.6483 67.1239L17.0629 65.2581L14.8526 66.0577L15.6483 67.1239Z" fill="black"/>
<path d="M31.4735 13.0138C31.6503 13.1915 31.7387 13.3692 32.0039 13.4581C32.1807 13.5469 32.3576 13.6358 32.6228 13.6358C32.888 13.6358 33.0648 13.6358 33.3301 13.5469C33.5953 13.4581 33.7721 13.2804 33.9489 13.1027C34.1257 12.925 34.2141 12.7473 34.3026 12.4807C34.391 12.303 34.391 12.0365 34.391 11.7699C34.391 11.5033 34.3025 11.3256 34.2141 11.0591C34.1257 10.7925 34.0373 10.6148 33.8605 10.4371C33.6837 10.2594 33.5953 10.0817 33.3301 9.99289C33.1532 9.90404 32.888 9.81519 32.7112 9.81519C32.446 9.81519 32.2692 9.81519 32.0039 9.90404C31.7387 9.99289 31.5619 10.1706 31.3851 10.3483C31.2082 10.526 31.1198 10.7037 31.0314 10.9702C30.943 11.2368 30.943 11.4145 30.943 11.6811C30.943 11.9476 31.0314 12.1253 31.1198 12.3919C31.2082 12.5696 31.2967 12.7473 31.4735 13.0138Z" fill="black"/>
<path d="M60.6483 11.7699L58.9686 13.4581L60.2947 14.08L60.6483 11.7699Z" fill="black"/>
<path d="M78.5069 59.8381C78.3301 59.6604 78.1532 59.5715 77.888 59.4827C77.7112 59.3938 77.446 59.305 77.1807 59.2161C76.9155 59.2161 76.7387 59.2161 76.4735 59.2161C76.2967 59.305 76.0314 59.3938 75.8546 59.4827C75.6778 59.6604 75.501 59.8381 75.4126 60.1046C75.3242 60.3712 75.2358 60.6377 75.2358 60.8154C75.2358 61.082 75.3242 61.2597 75.4126 61.4374C75.501 61.6151 75.6778 61.7928 75.8546 61.9705C76.0314 62.1482 76.2083 62.237 76.4735 62.3259C76.6503 62.4148 76.9155 62.5036 77.1807 62.5925C77.446 62.5925 77.6228 62.5925 77.888 62.5925C78.0648 62.5925 78.3301 62.5036 78.5069 62.3259C78.6837 62.1482 78.8605 61.9705 78.9489 61.7039C79.0373 61.4374 79.1257 61.1708 79.1257 60.9931C79.1257 60.7266 79.0373 60.5489 78.9489 60.3712C78.7721 60.1935 78.6837 60.0158 78.5069 59.8381Z" fill="black"/>
<path d="M45 2.17401C21.4833 2.17401 2.29862 21.3658 2.29862 45C2.29862 68.6343 21.3949 87.9149 45 87.9149C68.6051 87.9149 87.7014 68.7232 87.7014 45C87.7014 21.2769 68.5167 2.17401 45 2.17401ZM80.2751 34.2491L81.1591 36.7369L83.9882 36.8258L81.6896 38.3362L82.3969 41.1795L80.2751 39.5802L78.0648 41.1795L78.7721 38.3362L76.5619 36.7369H79.391L80.2751 34.2491ZM73.7328 20.4773C74.1749 20.5661 74.7053 20.7438 75.1474 21.0104C75.5894 21.2769 76.0314 21.7212 76.4735 22.2543C76.9155 22.8762 77.2692 23.4982 77.3576 24.209C77.446 24.8309 77.446 25.4529 77.1808 25.8971L75.3242 25.1863C75.4126 25.0086 75.501 24.8309 75.501 24.6532C75.501 24.4755 75.501 24.2978 75.501 24.1201C75.501 23.9424 75.4126 23.7647 75.3242 23.6759C75.2358 23.4982 75.1474 23.4093 75.059 23.2316C74.8821 22.9651 74.6169 22.7874 74.4401 22.6985C74.2633 22.6097 73.998 22.5208 73.7328 22.5208C73.4676 22.5208 73.2908 22.5208 73.0256 22.6097C72.7603 22.6985 72.5835 22.7874 72.4067 22.8762C72.2299 23.0539 72.0531 23.2316 71.8762 23.4093C71.6994 23.587 71.611 23.8536 71.611 24.0313C71.5226 24.2978 71.611 24.4755 71.611 24.7421C71.6994 25.0086 71.7878 25.2752 71.9647 25.4529C72.0531 25.5417 72.1415 25.7194 72.3183 25.8083C72.4067 25.8971 72.5835 25.986 72.7603 26.0749C72.9371 26.1637 73.0256 26.2526 73.2024 26.2526C73.3792 26.2526 73.556 26.2526 73.7328 26.2526L74.0864 28.2961C73.8212 28.385 73.4676 28.385 73.2024 28.2961C72.8487 28.2073 72.5835 28.1184 72.3183 27.9407C72.0531 27.763 71.6994 27.5853 71.4342 27.3188C71.169 27.0522 70.9037 26.7857 70.7269 26.5191C70.3733 25.986 70.1081 25.5417 70.0197 25.0086C69.9312 24.4755 69.8428 23.9424 69.9313 23.4982C70.0197 22.9651 70.1081 22.5208 70.3733 22.0766C70.6385 21.6323 70.9037 21.2769 71.2574 21.0104C71.611 20.7438 72.0531 20.5661 72.4951 20.4773C72.8487 20.3884 73.2908 20.3884 73.7328 20.4773ZM72.7603 45C72.7603 60.3712 60.2947 72.988 44.9116 72.988C29.5285 72.988 17.1513 60.4601 17.1513 45C17.1513 29.54 29.6169 17.0121 45 17.0121C60.3831 17.0121 72.7603 29.6289 72.7603 45ZM67.721 13.2803L72.0531 16.8344L70.9921 18.1671L68.4283 16.0347L67.6326 16.9232L69.7544 18.7002L68.6051 19.9442L66.4833 18.1671L64.8035 20.2107L63.0354 18.7891L67.721 13.2803ZM60.6483 9.28207L62.5049 10.1706L61.9745 17.9006L59.9411 16.9232L60.1179 15.4128L58.1729 14.4354L57.112 15.5905L55.0786 14.6131L60.6483 9.28207ZM44.2927 7.50505L45.1768 5.01723L46.0609 7.50505L48.89 7.5939L46.5914 9.10437L47.2986 11.9476L45.1768 10.3483L42.9666 11.9476L43.6739 9.10437L41.4637 7.50505H44.2927ZM29.3517 10.2594C29.5285 9.81517 29.7937 9.45977 30.1474 9.10437C30.501 8.74896 30.943 8.48241 31.3851 8.30471C31.9155 8.12701 32.3576 8.03816 32.888 8.03816C33.4185 8.03816 33.8605 8.21586 34.2141 8.39356C34.6562 8.57126 35.0098 8.92666 35.2751 9.28207C35.6287 9.63747 35.8055 9.99287 35.9823 10.4371C36.1591 10.8814 36.2475 11.3256 36.1591 11.7699C36.1591 12.2141 36.0707 12.6584 35.8055 13.1026C35.6287 13.5469 35.3635 13.9023 35.0098 14.2577C34.6562 14.6131 34.2141 14.8797 33.7721 15.0574C33.2417 15.2351 32.7996 15.3239 32.2692 15.3239C31.7387 15.3239 31.2967 15.1462 30.943 14.9685C30.501 14.7908 30.1474 14.4354 29.8821 14.1689C29.5285 13.8135 29.3517 13.458 29.1749 13.0138C28.998 12.5695 28.9096 12.1253 28.998 11.5922C28.998 11.1479 29.0864 10.7037 29.3517 10.2594ZM22.1022 13.3692L23.6051 15.5905L25.5501 14.2577L24.0472 12.0364L25.6385 10.9702L29.6169 16.9232L28.0255 17.9894L26.4342 15.6793L24.4892 17.0121L26.0806 19.3222L24.4892 20.3884L20.5108 14.4354L22.1022 13.3692ZM15.8251 19.4999C16.002 19.0556 16.2672 18.6114 16.6208 18.1671C17.0629 17.634 17.5933 17.2786 18.1238 17.1009C18.6542 16.9232 19.1847 16.9232 19.7151 17.0121L19.4499 18.8779C19.2731 18.7891 19.0963 18.7891 18.9194 18.7891C18.7426 18.7891 18.6542 18.7891 18.4774 18.8779C18.3006 18.9668 18.2122 18.9668 18.1238 19.0556C18.0354 19.1445 17.8585 19.2333 17.7701 19.3222C17.5933 19.4999 17.4165 19.7664 17.4165 19.9442C17.3281 20.2107 17.3281 20.3884 17.4165 20.655C17.4165 20.8327 17.5049 21.0992 17.6817 21.2769C17.7701 21.4546 17.947 21.6323 18.1238 21.81C18.3006 21.9877 18.4774 22.0766 18.7426 22.2543C18.9195 22.3431 19.1847 22.432 19.4499 22.432C19.7151 22.432 19.8919 22.432 20.0688 22.3431C20.2456 22.2543 20.5108 22.1654 20.6876 21.8989C20.776 21.81 20.8644 21.7212 20.9528 21.5435C21.0413 21.4546 21.0413 21.2769 21.1297 21.0992C21.1297 20.9215 21.2181 20.8327 21.1297 20.655C21.1297 20.4773 21.0413 20.3884 21.0413 20.2107L22.8094 19.6776C22.8978 19.9442 22.9862 20.2107 22.9862 20.4773C22.9862 20.7438 22.9862 21.0992 22.8978 21.3658C22.8094 21.6323 22.721 21.9877 22.5442 22.2543C22.3674 22.5208 22.1906 22.7874 22.0138 23.0539C21.6601 23.4093 21.2181 23.7647 20.776 23.9424C20.334 24.1201 19.8919 24.209 19.3615 24.209C18.9194 24.209 18.389 24.1201 17.947 23.9424C17.5049 23.7647 17.1513 23.4982 16.7976 23.2316C16.444 22.9651 16.1788 22.6097 16.002 22.1654C15.8251 21.7212 15.6483 21.2769 15.6483 20.8327C15.5599 20.4773 15.6483 19.9442 15.8251 19.4999ZM12.9961 22.5208L14.499 23.4093L12.9077 26.0749L13.7917 26.608L15.1179 24.3867L16.444 25.1863L15.1179 27.4076L16.0904 28.0296L17.6817 25.364L19.1847 26.2526L16.5324 30.6062L10.4322 26.8745L12.9961 22.5208ZM8.57564 36.7369L9.45972 34.2491L10.3438 36.7369L13.1729 36.8258L10.8743 38.3362L11.5815 41.1795L9.45972 39.5802L7.24951 41.1795L7.95678 38.3362L5.83497 36.7369H8.57564ZM6.01179 51.6638L11.3163 50.5976L10.9627 48.5541L12.6424 48.1987L13.8802 54.2405L12.2004 54.5959L11.7583 52.5524L6.45383 53.6186L6.01179 51.6638ZM9.1945 61.7928L10.6974 59.7493L10.4322 59.0385L8.39882 59.927L7.60314 58.15L14.1454 55.3067L15.4715 58.3277C15.6483 58.6831 15.6483 58.9496 15.6483 59.305C15.6483 59.6604 15.5599 59.927 15.4715 60.1935C15.3831 60.4601 15.2063 60.7266 14.9411 60.9932C14.6758 61.2597 14.499 61.4374 14.1454 61.5263C13.7917 61.704 13.3497 61.7928 12.9961 61.704C12.6424 61.6151 12.2004 61.5263 11.8468 61.3486L10.0786 63.8364L9.1945 61.7928ZM13.8802 69.3451L14.7642 68.1901L13.6149 66.6796L12.2004 67.1239L11.0511 65.4357L18.3006 63.2144L19.3615 64.636L15.0295 70.8556L13.8802 69.3451ZM20.4224 76.0089L20.5992 71.4776L18.3006 74.1431L16.7976 72.8103L21.4833 67.3904L22.6326 68.3678L22.4558 72.988L24.8428 70.2336L26.3458 71.5664L21.5717 76.9863L20.4224 76.0089ZM28.2908 75.2981C28.2908 75.387 28.3792 75.4758 28.4676 75.5647C28.556 75.6535 28.6444 75.7424 28.7328 75.9201C28.8212 76.0089 28.998 76.1866 29.1749 76.3643C29.4401 76.6309 29.6169 76.8086 29.7937 77.0751C29.9705 77.3417 30.1473 77.5194 30.2358 77.7859C30.3242 78.0525 30.3242 78.2302 30.3242 78.4967C30.3242 78.7633 30.2358 79.0299 30.0589 79.2964C29.8821 79.6518 29.6169 79.9184 29.3517 80.1849C29.0864 80.3626 28.8212 80.4515 28.4676 80.5403C28.1139 80.6292 27.8487 80.5403 27.4951 80.4515C27.1415 80.3626 26.8762 80.2738 26.611 80.0961C26.3458 80.0072 26.169 79.8295 25.9037 79.6518C25.6385 79.4741 25.4617 79.2964 25.2849 79.1187C25.1081 78.941 24.9312 78.7633 24.7544 78.4967C24.5776 78.3191 24.4008 78.0525 24.3124 77.8748L25.9037 76.7197C26.0806 76.9863 26.169 77.164 26.3458 77.4305C26.5226 77.6082 26.6994 77.7859 26.8762 78.0525C27.053 78.2302 27.3183 78.4079 27.5835 78.5856C27.7603 78.6745 27.9371 78.7633 28.0255 78.7633C28.1139 78.7633 28.2024 78.6745 28.2024 78.5856C28.2908 78.4968 28.2908 78.4079 28.2024 78.3191C28.2024 78.2302 28.1139 78.1413 28.0255 77.9637C27.9371 77.8748 27.7603 77.6971 27.6719 77.6082C27.4951 77.4305 27.4067 77.3417 27.2299 77.164C26.9646 76.8974 26.7878 76.7197 26.6994 76.4532C26.2574 76.0978 26.169 75.9201 26.169 75.6535C26.0806 75.4758 26.0806 75.2093 26.169 75.0316C26.169 74.8539 26.2574 74.5873 26.4342 74.3208C26.611 73.9654 26.8762 73.6988 27.1415 73.5211C27.4067 73.3434 27.6719 73.1657 28.0255 73.1657C28.3792 73.0769 28.6444 73.0769 28.998 73.1657C29.3517 73.2546 29.6169 73.3434 29.9705 73.5211C30.2358 73.61 30.4126 73.7877 30.5894 73.9654C30.7662 74.1431 30.943 74.3208 31.1198 74.4985C31.2967 74.6762 31.4735 74.8539 31.5619 75.0316C31.7387 75.2093 31.8271 75.387 31.9155 75.4758L30.4126 76.542C30.3242 76.3643 30.1474 76.1866 29.9705 75.9201C29.8821 75.7424 29.7053 75.5647 29.5285 75.387C29.3517 75.2093 29.1749 75.1204 28.998 74.9427C28.8212 74.8539 28.7328 74.8539 28.556 74.8539C28.4676 74.8539 28.3792 74.9427 28.2908 75.0316C28.2024 75.1204 28.2024 75.2093 28.2908 75.2981ZM38.0157 79.2964C37.9273 79.563 37.7505 79.9184 37.5737 80.0961C37.3969 80.3626 37.1316 80.5403 36.8664 80.718C36.6012 80.8957 36.336 80.9846 35.9823 81.0734C35.6287 81.1623 35.3635 81.0734 35.0098 80.9846L33.8605 80.6292L33.2417 82.7616L31.3851 82.2285L33.4185 75.2981L36.4244 76.1866C36.778 76.2755 37.0432 76.4532 37.3084 76.6309C37.5737 76.8086 37.7505 77.0751 37.8389 77.4305C38.0157 77.6971 38.1041 78.0525 38.1041 78.3191C38.1925 78.6745 38.1041 79.0299 38.0157 79.2964ZM46.503 81.1623C46.503 81.6065 46.3261 82.0508 46.1493 82.495C45.9725 82.9393 45.7073 83.2947 45.3536 83.5612C45 83.9166 44.6464 84.0943 44.1159 84.272C43.6739 84.4498 43.1434 84.5386 42.613 84.4498C42.0825 84.4498 41.5521 84.272 41.11 84.0055C40.668 83.7389 40.3143 83.4724 40.0491 83.117C39.7839 82.7616 39.5187 82.3173 39.3419 81.8731C39.165 81.4288 39.165 80.9846 39.165 80.5403C39.165 80.0961 39.3419 79.6518 39.5187 79.2076C39.6955 78.7633 39.9607 78.4079 40.3143 78.0525C40.668 77.6971 41.0216 77.5194 41.5521 77.3417C41.9941 77.164 42.5246 77.0751 43.055 77.164C43.5855 77.164 44.1159 77.3417 44.558 77.6082C45 77.8748 45.3536 78.1413 45.6189 78.4967C45.8841 78.8522 46.1493 79.2964 46.2377 79.7407C46.4145 80.1849 46.503 80.718 46.503 81.1623ZM52.9568 83.7389L51.3654 81.7842L50.6582 81.8731L51.0118 84.0944L49.0668 84.4498L47.8291 77.3417L51.1002 76.8086C51.4538 76.7197 51.8075 76.8086 52.0727 76.8974C52.4263 76.9863 52.6916 77.164 52.9568 77.3417C53.222 77.5194 53.3988 77.7859 53.5756 78.0525C53.7525 78.3191 53.8409 78.5856 53.9293 78.941C54.0177 79.3853 54.0177 79.7407 53.8409 80.1849C53.7525 80.5403 53.4872 80.8957 53.222 81.1623L55.167 83.4724L52.9568 83.7389ZM58.8802 82.0508L56.8468 76.9863L54.9018 77.7859L54.2829 76.1866L59.9411 73.8765L60.5599 75.4758L58.6149 76.2755L60.6483 81.34L58.8802 82.0508ZM67.6326 77.4305L66.4833 76.4532L64.892 77.5194L65.334 78.941L63.6542 80.0072L61.8861 72.6326L63.389 71.6553L69.4008 76.3643L67.6326 77.4305ZM71.6994 74.1431L67.8978 70.2336L66.4833 71.6553L65.334 70.4113L69.7544 66.1465L70.9037 67.3904L69.4008 68.812L73.2024 72.7215L71.6994 74.1431ZM76.0314 69.434L70.2849 65.0803L71.4342 63.481L77.1808 67.8347L76.0314 69.434ZM80.4519 62.5925C80.1867 63.1256 79.9214 63.481 79.4794 63.7475C79.1257 64.0141 78.6837 64.2806 78.2417 64.3695C77.7996 64.4583 77.3576 64.5472 76.8271 64.5472C76.3851 64.5472 75.943 64.3695 75.501 64.1918C75.059 64.0141 74.7053 63.6587 74.4401 63.3033C74.0865 62.9479 73.9096 62.5036 73.7328 62.0594C73.556 61.6151 73.556 61.1709 73.556 60.6378C73.556 60.1047 73.7328 59.6604 73.9096 59.2162C74.1749 58.6831 74.4401 58.3276 74.8821 58.0611C75.2358 57.7945 75.6778 57.528 76.1199 57.4391C76.5619 57.3503 77.0039 57.2614 77.5344 57.3503C77.9764 57.3503 78.4185 57.528 78.8605 57.7057C79.3026 57.8834 79.6562 58.2388 79.9214 58.5942C80.1867 58.9496 80.4519 59.3939 80.6287 59.7493C80.8055 60.1935 80.8939 60.6378 80.8055 61.1709C80.8055 61.6151 80.7171 62.0594 80.4519 62.5925ZM83.9882 51.8415L79.9214 53.8851L83.3694 54.6848L82.9273 56.6395L75.943 55.129L76.2967 53.6186L80.4519 51.575L76.9155 50.7753L77.3576 48.8206L84.3419 50.3311L83.9882 51.8415Z" fill="black"/>
</g>
<defs>
<clipPath id="clip0_16_4128">
<rect width="90" height="90" fill="white"/>
</clipPath>
</defs>
</svg>
