<svg preserveAspectRatio="xMidYMid meet" data-bbox="12.4 9.625 323.2 122.375" viewBox="0 0 345 144.2" xmlns="http://www.w3.org/2000/svg" data-type="ugc" role="img" aria-label="American Transfers &amp; Tours Logo (ATT))">
    <g>
        <path fill="#f8d211" d="m130.2 34.7 4.5 4.5-4.5-4.5z"></path>
        <path fill="#da1a5e" d="m219 39.4-42.9-.1-29.3-29.1-.1-.1 43 .1L219 39.4z"></path>
        <path fill="#da1a5e" d="M105.4 10h.1l24.7 24.7-24.7-24.6-.1-.1z"></path>
        <path fill="#da1a5e" d="m131.1 10.1-25.6-.1h41.1l.1.1h-15.6z"></path>
        <linearGradient y2="49.48" x2="155.616" y1="80.869" x1="202.071" gradientUnits="userSpaceOnUse" id="21855b8c-d27c-414e-b41f-057245211ddc_comp-lk1b3aiw">
            <stop offset="0" stop-color="#6cc9ca"></stop>
            <stop offset="1" stop-color="#009ba8"></stop>
        </linearGradient>
        <path fill="url(#21855b8c-d27c-414e-b41f-057245211ddc_comp-lk1b3aiw)" d="m239.6 102.4-41.4-.1-63.4-63-.1-.1 25.8.1h15.6l.1.1 63.4 63z"></path>
        <path fill="#f8d211" d="m315 39.4-42.9-.1-29.2-29.1-.1-.1 42.9.1L315 39.4z"></path>
        <linearGradient y2="96.358" x2="127.192" y1="84.593" x1="83.809" gradientUnits="userSpaceOnUse" id="7700c5b0-a43d-4eb1-b79e-420a2f077dbb_comp-lk1b3aiw">
            <stop offset="0" stop-color="#6cc9ca"></stop>
            <stop offset="1" stop-color="#009ba8"></stop>
        </linearGradient>
        <path fill="url(#7700c5b0-a43d-4eb1-b79e-420a2f077dbb_comp-lk1b3aiw)" d="m111.2 73.6 29.3 29.2-58.1-.2-29.1-29.1 57.9.1z"></path>
        <path fill="#7fc358" d="m181.9 102.9-41.4-.1-29.3-29.2 41.3.1 29.4 29.2z"></path>
        <path fill="#f8d211" d="m152.5 73.7-41.3-.1L82.4 45 103 24.5l49.5 49.2z"></path>
        <path d="M103 24.5 82.4 45 61.8 24.5l11-10.9c5.3-5.3 13.9-5.3 19.2 0l11 10.9z" fill="#ee9323"></path>
        <linearGradient y2="44.82" x2="47.404" y1="61.278" x1="47.404" gradientUnits="userSpaceOnUse" id="b9b21dbc-8176-486c-ab15-486b84c432a8_comp-lk1b3aiw">
            <stop offset="0" stop-color="#da1a5e"></stop>
            <stop offset="1" stop-color="#aa0a48"></stop>
        </linearGradient>
        <path fill="url(#b9b21dbc-8176-486c-ab15-486b84c432a8_comp-lk1b3aiw)" d="M82.4 45 53.6 73.6H12.4l49.4-49.1L82.4 45z"></path>
        <path d="M82.4 45c-17-15.2-21.7-12.6-30.3-10.9l9.7-9.6L82.4 45z" fill="#ee9323"></path>
        <linearGradient y2="44.819" x2="246.312" y1="78.718" x1="294.441" gradientUnits="userSpaceOnUse" id="4ff8e9a2-c684-43c7-87b4-43c7b370e682_comp-lk1b3aiw">
            <stop offset="0" stop-color="#da1a5e"></stop>
            <stop offset=".181" stop-color="#cc1657"></stop>
            <stop offset=".5" stop-color="#b9104f"></stop>
            <stop offset=".783" stop-color="#ae0c4a"></stop>
            <stop offset="1" stop-color="#aa0a48"></stop>
        </linearGradient>
        <path fill="url(#4ff8e9a2-c684-43c7-87b4-43c7b370e682_comp-lk1b3aiw)" d="m335.6 102.4-41.3-.1-63.4-63-.1-.1 25.7.1h15.6l.1.1 63.4 63z"></path>
        <path d="M176.1 39.3h-21c-8.1 1.6-9 6.9-6.4 13.8l-14-13.9-4.5-4.5L105.5 10l25.6.1h15.6l.1.1 29.3 29.1z" fill="#4a5386"></path>
        <path d="M272.1 39.3h-21c-8.1 1.6-9 6.9-6.4 13.8l-14-13.9-4.5-4.5L201.6 10l25.6.1h15.6l.1.1 29.2 29.1z" fill="#ee9323"></path>
        <path d="m16.4 128.8-1 3h-2.8l4.4-13.1h3.6l4.6 13.1h-3l-1.1-3h-4.7zm4.2-2.4c-.9-2.8-1.5-4.5-1.8-5.7-.3 1.3-1 3.3-1.7 5.7h3.5z" fill="#4a5386"></path>
        <path d="M38.7 126.9c0-2.2 0-4.7.1-6.2h-.1c-.6 2.7-1.9 7-3.2 11.1h-2.4c-1-3.6-2.3-8.5-2.9-11.2h-.1c.1 1.5.2 4.2.2 6.5v4.7h-2.6v-13.1h4.2c1 3.4 2.2 7.7 2.6 9.7.3-1.7 1.8-6.3 2.8-9.7h4.1v13.1h-2.7v-4.9z" fill="#4a5386"></path>
        <path d="M54.3 126.1H48v3.3h6.9l-.3 2.3h-9.3v-13.1h9.3v2.3H48v2.8h6.3v2.4z" fill="#4a5386"></path>
        <path d="M60.5 126.5v5.2h-2.8v-13.1h5.8c2.9 0 4.4 1.6 4.4 3.6 0 1.8-1 2.7-1.9 3.1.6.2 1.6.9 1.6 3.3v.6c0 .9 0 1.9.2 2.5h-2.7c-.2-.6-.3-1.5-.3-2.9v-.2c0-1.4-.4-2.1-2.5-2.1h-1.8zm0-2.2h2.4c1.5 0 2.1-.6 2.1-1.7s-.7-1.7-2.1-1.7h-2.4v3.4z" fill="#4a5386"></path>
        <path d="M74 118.7v13.1h-2.8v-13.1H74z" fill="#4a5386"></path>
        <path d="M88.9 127.7c-.5 2.4-2.4 4.2-5.6 4.2-4.1 0-6.1-2.9-6.1-6.7 0-3.6 2-6.8 6.2-6.8 3.5 0 5.2 2 5.5 4.2h-2.8c-.3-1-1-2-2.8-2-2.3 0-3.2 2.1-3.2 4.5 0 2.2.8 4.5 3.3 4.5 1.8 0 2.4-1.2 2.7-2h2.8z" fill="#4a5386"></path>
        <path d="m94.3 128.8-1 3h-2.8l4.4-13.1h3.6l4.6 13.1h-3l-1.1-3h-4.7zm4.2-2.4c-.9-2.8-1.5-4.5-1.8-5.7-.3 1.3-1 3.3-1.7 5.7h3.5z" fill="#4a5386"></path>
        <path d="M105.6 131.8v-13.1h3.5c1.6 2.9 4.7 8.2 5.3 9.7-.1-1.4-.1-3.6-.1-5.8v-3.9h2.6v13.1h-3.3c-1.4-2.6-4.8-8.6-5.4-10.2.1 1.1.1 3.8.1 6.2v4h-2.7z" fill="#4a5386"></path>
        <path d="M128.7 121h-4v-2.3h10.8v2.3h-4v10.8h-2.8V121z" fill="#4a5386"></path>
        <path d="M140.7 126.5v5.2H138v-13.1h5.8c2.9 0 4.4 1.6 4.4 3.6 0 1.8-1 2.7-1.9 3.1.6.2 1.6.9 1.6 3.3v.6c0 .9 0 1.9.2 2.5h-2.7c-.2-.6-.3-1.5-.3-2.9v-.2c0-1.4-.4-2.1-2.5-2.1h-1.9zm0-2.2h2.4c1.5 0 2.1-.6 2.1-1.7s-.7-1.7-2.1-1.7h-2.4v3.4z" fill="#4a5386"></path>
        <path d="m154.1 128.8-1 3h-2.8l4.4-13.1h3.6l4.6 13.1h-3l-1.1-3h-4.7zm4.1-2.4c-.9-2.8-1.5-4.5-1.8-5.7-.3 1.3-1 3.3-1.7 5.7h3.5z" fill="#4a5386"></path>
        <path d="M165.3 131.8v-13.1h3.5c1.6 2.9 4.7 8.2 5.3 9.7-.1-1.4-.1-3.6-.1-5.8v-3.9h2.6v13.1h-3.3c-1.4-2.6-4.8-8.6-5.4-10.2.1 1.1.1 3.8.1 6.2v4h-2.7z" fill="#4a5386"></path>
        <path d="M182.3 127.9c.3 1.3 1.2 1.9 2.8 1.9 1.5 0 2.2-.6 2.2-1.6 0-1.1-.6-1.5-2.9-2-3.6-.8-4.4-2.1-4.4-3.9 0-2.3 1.7-3.8 4.8-3.8 3.5 0 4.9 1.9 5 3.8h-2.9c-.1-.8-.6-1.7-2.3-1.7-1.1 0-1.8.5-1.8 1.4 0 .9.6 1.3 2.7 1.8 3.8.9 4.6 2.3 4.6 4.2 0 2.4-1.8 4-5.3 4-3.3 0-5.1-1.6-5.4-4h2.9z" fill="#4a5386"></path>
        <path d="M192.9 118.7h9.1v2.3h-6.4v3.2h6v2.3h-6v5.2h-2.8v-13z" fill="#4a5386"></path>
        <path d="M213.9 126.1h-6.3v3.3h6.9l-.3 2.3h-9.3v-13.1h9.3v2.3h-6.5v2.8h6.3v2.4z" fill="#4a5386"></path>
        <path d="M220.1 126.5v5.2h-2.8v-13.1h5.8c2.9 0 4.4 1.6 4.4 3.6 0 1.8-1 2.7-1.9 3.1.6.2 1.6.9 1.6 3.3v.6c0 .9 0 1.9.2 2.5h-2.7c-.2-.6-.3-1.5-.3-2.9v-.2c0-1.4-.4-2.1-2.5-2.1h-1.8zm0-2.2h2.4c1.5 0 2.1-.6 2.1-1.7s-.7-1.7-2.1-1.7h-2.4v3.4z" fill="#4a5386"></path>
        <path d="M232.8 127.9c.3 1.3 1.2 1.9 2.8 1.9 1.5 0 2.2-.6 2.2-1.6 0-1.1-.6-1.5-2.9-2-3.6-.8-4.4-2.1-4.4-3.9 0-2.3 1.7-3.8 4.8-3.8 3.5 0 4.9 1.9 5 3.8h-2.9c-.1-.8-.6-1.7-2.3-1.7-1.1 0-1.8.5-1.8 1.4 0 .9.6 1.3 2.7 1.8 3.8.9 4.6 2.3 4.6 4.2 0 2.4-1.8 4-5.3 4-3.3 0-5.1-1.6-5.4-4h2.9z" fill="#4a5386"></path>
        <path d="m261.5 123.7-3.5 4.7c-1.5 2.1-2.6 3.6-5.4 3.6-2.9 0-4.2-1.9-4.2-3.6 0-1.9 1.3-3 3.6-4.1 1.3-.5 2.6-1.2 2.6-2.5 0-.7-.4-1.4-1.2-1.4-.8 0-1.2.6-1.2 1.4 0 .8.7 1.4 1.4 2.1l8.1 7.9h-3.5l-6.9-6.8c-.8-.8-1.5-1.8-1.5-3 0-2 1.5-3.5 3.7-3.5 2.3 0 3.6 1.5 3.6 3.2 0 1.7-1.3 2.7-3.7 3.9-1.7.7-2.2 1.6-2.2 2.5 0 .9.6 1.7 1.8 1.7 1.4 0 1.9-.7 3.5-2.9l2.3-3.1h2.7z" fill="#4a5386"></path>
        <path d="M272.6 121h-4v-2.3h10.8v2.3h-4v10.8h-2.8V121z" fill="#4a5386"></path>
        <path d="M293.5 125.2c0 3.6-2.2 6.8-6.4 6.8-4.1 0-6.3-3-6.3-6.7 0-3.8 2.4-6.7 6.4-6.7 3.9-.1 6.3 2.6 6.3 6.6zm-9.7 0c0 2.6 1.1 4.5 3.4 4.5 2.5 0 3.4-2.1 3.4-4.4 0-2.5-1-4.4-3.5-4.4-2.3-.1-3.3 1.7-3.3 4.3z" fill="#4a5386"></path>
        <path d="M299.4 118.7v7.8c0 2.5 1.3 3.3 2.7 3.3 1.6 0 2.6-.9 2.6-3.3v-7.8h2.8v7.7c0 4.5-2.6 5.6-5.5 5.6-3 0-5.5-1.2-5.5-5.6v-7.7h2.9z" fill="#4a5386"></path>
        <path d="M314.1 126.5v5.2h-2.8v-13.1h5.8c2.9 0 4.4 1.6 4.4 3.6 0 1.8-1 2.7-1.9 3.1.6.2 1.6.9 1.6 3.3v.6c0 .9 0 1.9.2 2.5h-2.7c-.2-.6-.3-1.5-.3-2.9v-.2c0-1.4-.4-2.1-2.5-2.1h-1.8zm0-2.2h2.4c1.5 0 2.1-.6 2.1-1.7s-.7-1.7-2.1-1.7h-2.4v3.4z" fill="#4a5386"></path>
        <path d="M326.8 127.9c.3 1.3 1.2 1.9 2.8 1.9 1.5 0 2.2-.6 2.2-1.6 0-1.1-.6-1.5-2.9-2-3.6-.8-4.4-2.1-4.4-3.9 0-2.3 1.7-3.8 4.8-3.8 3.5 0 4.9 1.9 5 3.8h-2.9c-.1-.8-.6-1.7-2.3-1.7-1.1 0-1.8.5-1.8 1.4 0 .9.6 1.3 2.7 1.8 3.8.9 4.6 2.3 4.6 4.2 0 2.4-1.8 4-5.3 4-3.3 0-5.1-1.6-5.4-4h2.9z" fill="#4a5386"></path>
    </g>
</svg>